<mxfile host="app.diagrams.net" agent="Mozilla/5.0 (X11; Ubuntu; Linux x86_64; rv:143.0) Gecko/20100101 Firefox/143.0" version="28.2.0">
  <diagram name="Page-1" id="86DyE4iFojEXtG5Y-RKm">
    <mxGraphModel dx="1141" dy="585" grid="1" gridSize="10" guides="1" tooltips="1" connect="1" arrows="1" fold="1" page="1" pageScale="1" pageWidth="850" pageHeight="1100" math="0" shadow="0">
      <root>
        <mxCell id="0" />
        <mxCell id="1" parent="0" />
        <mxCell id="yMwmE3qfdgWV35wLSOWw-9" style="rounded=0;orthogonalLoop=1;jettySize=auto;html=1;exitX=0.5;exitY=1;exitDx=0;exitDy=0;entryX=0.25;entryY=0;entryDx=0;entryDy=0;endArrow=none;endFill=0;" edge="1" parent="1" source="yMwmE3qfdgWV35wLSOWw-1" target="yMwmE3qfdgWV35wLSOWw-7">
          <mxGeometry relative="1" as="geometry" />
        </mxCell>
        <mxCell id="yMwmE3qfdgWV35wLSOWw-1" value="&lt;u&gt;id&lt;/u&gt;" style="ellipse;whiteSpace=wrap;html=1;fillColor=#dae8fc;strokeColor=#6c8ebf;" vertex="1" parent="1">
          <mxGeometry x="70" width="100" height="40" as="geometry" />
        </mxCell>
        <mxCell id="yMwmE3qfdgWV35wLSOWw-10" style="rounded=0;orthogonalLoop=1;jettySize=auto;html=1;exitX=0.5;exitY=1;exitDx=0;exitDy=0;entryX=0.75;entryY=0;entryDx=0;entryDy=0;endArrow=none;endFill=0;" edge="1" parent="1" source="yMwmE3qfdgWV35wLSOWw-2" target="yMwmE3qfdgWV35wLSOWw-7">
          <mxGeometry relative="1" as="geometry" />
        </mxCell>
        <mxCell id="yMwmE3qfdgWV35wLSOWw-2" value="epochSecond" style="ellipse;whiteSpace=wrap;html=1;fillColor=#dae8fc;strokeColor=#6c8ebf;" vertex="1" parent="1">
          <mxGeometry x="210" width="100" height="40" as="geometry" />
        </mxCell>
        <mxCell id="yMwmE3qfdgWV35wLSOWw-8" style="edgeStyle=orthogonalEdgeStyle;rounded=0;orthogonalLoop=1;jettySize=auto;html=1;exitX=1;exitY=0.5;exitDx=0;exitDy=0;entryX=0;entryY=0.5;entryDx=0;entryDy=0;endArrow=none;endFill=0;" edge="1" parent="1" source="yMwmE3qfdgWV35wLSOWw-3" target="yMwmE3qfdgWV35wLSOWw-7">
          <mxGeometry relative="1" as="geometry" />
        </mxCell>
        <mxCell id="yMwmE3qfdgWV35wLSOWw-3" value="volume" style="ellipse;whiteSpace=wrap;html=1;fillColor=#dae8fc;strokeColor=#6c8ebf;" vertex="1" parent="1">
          <mxGeometry y="60" width="100" height="40" as="geometry" />
        </mxCell>
        <mxCell id="yMwmE3qfdgWV35wLSOWw-12" style="rounded=0;orthogonalLoop=1;jettySize=auto;html=1;exitX=0.5;exitY=0;exitDx=0;exitDy=0;entryX=0.25;entryY=1;entryDx=0;entryDy=0;endArrow=none;endFill=0;" edge="1" parent="1" source="yMwmE3qfdgWV35wLSOWw-4" target="yMwmE3qfdgWV35wLSOWw-7">
          <mxGeometry relative="1" as="geometry" />
        </mxCell>
        <mxCell id="yMwmE3qfdgWV35wLSOWw-4" value="totalPrice" style="ellipse;whiteSpace=wrap;html=1;fillColor=#dae8fc;strokeColor=#6c8ebf;" vertex="1" parent="1">
          <mxGeometry x="70" y="120" width="100" height="40" as="geometry" />
        </mxCell>
        <mxCell id="yMwmE3qfdgWV35wLSOWw-5" value="description" style="ellipse;whiteSpace=wrap;html=1;fillColor=#dae8fc;strokeColor=#6c8ebf;" vertex="1" parent="1">
          <mxGeometry x="280" y="60" width="100" height="40" as="geometry" />
        </mxCell>
        <mxCell id="yMwmE3qfdgWV35wLSOWw-6" value="distanceTraveled" style="ellipse;whiteSpace=wrap;html=1;fillColor=#dae8fc;strokeColor=#6c8ebf;" vertex="1" parent="1">
          <mxGeometry x="210" y="120" width="100" height="40" as="geometry" />
        </mxCell>
        <mxCell id="yMwmE3qfdgWV35wLSOWw-11" style="edgeStyle=orthogonalEdgeStyle;rounded=0;orthogonalLoop=1;jettySize=auto;html=1;exitX=1;exitY=0.5;exitDx=0;exitDy=0;entryX=0;entryY=0.5;entryDx=0;entryDy=0;endArrow=none;endFill=0;" edge="1" parent="1" source="yMwmE3qfdgWV35wLSOWw-7" target="yMwmE3qfdgWV35wLSOWw-5">
          <mxGeometry relative="1" as="geometry" />
        </mxCell>
        <mxCell id="yMwmE3qfdgWV35wLSOWw-13" style="rounded=0;orthogonalLoop=1;jettySize=auto;html=1;exitX=0.75;exitY=1;exitDx=0;exitDy=0;entryX=0.5;entryY=0;entryDx=0;entryDy=0;endArrow=none;endFill=0;" edge="1" parent="1" source="yMwmE3qfdgWV35wLSOWw-7" target="yMwmE3qfdgWV35wLSOWw-6">
          <mxGeometry relative="1" as="geometry" />
        </mxCell>
        <mxCell id="yMwmE3qfdgWV35wLSOWw-7" value="petrol_entries" style="rounded=0;whiteSpace=wrap;html=1;fillColor=#d5e8d4;strokeColor=#82b366;" vertex="1" parent="1">
          <mxGeometry x="140" y="60" width="100" height="40" as="geometry" />
        </mxCell>
      </root>
    </mxGraphModel>
  </diagram>
</mxfile>
